<?xml version="1.0" encoding="UTF-8"?>
<!DOCTYPE svg PUBLIC "-//W3C//DTD SVG 1.1//EN" "http://www.w3.org/Graphics/SVG/1.1/DTD/svg11.dtd">
<svg xmlns="http://www.w3.org/2000/svg" version="1.1" width="4096px" height="2333px" style="shape-rendering:geometricPrecision; text-rendering:geometricPrecision; image-rendering:optimizeQuality; fill-rule:evenodd; clip-rule:evenodd" xmlns:xlink="http://www.w3.org/1999/xlink">
<g><path style="opacity:0.997" fill="#fefffe" d="M 2524.5,72.5 C 2525.83,138.163 2526.5,204.163 2526.5,270.5C 2526.33,336.5 2526.17,402.5 2526,468.5C 2207.44,653.198 1888.61,837.532 1569.5,1021.5C 1568.17,889.167 1568.17,756.833 1569.5,624.5C 1887.88,440.428 2206.21,256.428 2524.5,72.5 Z"/></g>
<g><path style="opacity:0.997" fill="#fefffe" d="M 2524.5,587.5 C 2525.83,653.163 2526.5,719.163 2526.5,785.5C 2526.33,851.5 2526.17,917.5 2526,983.5C 2321.61,1102.07 2117.11,1220.4 1912.5,1338.5C 1911.83,1480.17 1911.17,1621.83 1910.5,1763.5C 1796.58,1688.29 1682.75,1612.96 1569,1537.5C 1568.33,1405.17 1568.33,1272.83 1569,1140.5C 1569.5,1140 1570,1139.5 1570.5,1139C 1888.73,955.392 2206.73,771.559 2524.5,587.5 Z"/></g>
<g><path style="opacity:0.976" fill="#fefffe" d="M 561.5,1996.5 C 564.85,1996.33 568.183,1996.5 571.5,1997C 572.931,1997.47 574.097,1998.3 575,1999.5C 609.759,2076.68 644.759,2153.68 680,2230.5C 680.667,2233.5 680.667,2236.5 680,2239.5C 678.681,2241.49 676.848,2242.65 674.5,2243C 665.5,2243.67 656.5,2243.67 647.5,2243C 646.167,2242.33 644.833,2241.67 643.5,2241C 635.151,2224.44 627.484,2207.61 620.5,2190.5C 584.161,2190.17 547.827,2190.5 511.5,2191.5C 504.037,2208.12 496.37,2224.62 488.5,2241C 487.167,2241.67 485.833,2242.33 484.5,2243C 474.426,2243.92 464.426,2243.59 454.5,2242C 451.735,2239.01 450.902,2235.51 452,2231.5C 486.957,2155.26 521.624,2078.92 556,2002.5C 557.36,1999.98 559.193,1997.98 561.5,1996.5 Z M 565.5,2070.5 C 578.982,2098.81 591.982,2127.47 604.5,2156.5C 578.833,2157.83 553.167,2157.83 527.5,2156.5C 540.367,2127.89 553.033,2099.23 565.5,2070.5 Z"/></g>
<g><path style="opacity:0.974" fill="#fefffe" d="M 926.5,1996.5 C 964.69,1993.06 997.523,2004.39 1025,2030.5C 1027.12,2034.37 1026.79,2038.03 1024,2041.5C 1018.17,2047.33 1012.33,2053.17 1006.5,2059C 1004.17,2059.67 1001.83,2059.67 999.5,2059C 964.466,2029.26 927.799,2026.93 889.5,2052C 858.121,2079.67 848.954,2113.51 862,2153.5C 881.346,2195.26 913.846,2212.43 959.5,2205C 974.127,2200.86 987.127,2193.86 998.5,2184C 1001.96,2183.18 1005.3,2183.52 1008.5,2185C 1014,2190.5 1019.5,2196 1025,2201.5C 1026.88,2204.8 1026.88,2208.13 1025,2211.5C 990.593,2243.48 950.426,2253.64 904.5,2242C 844.479,2220.82 814.312,2178.32 814,2114.5C 820.038,2057.46 850.204,2019.63 904.5,2001C 911.931,1999.28 919.265,1997.78 926.5,1996.5 Z"/></g>
<g><path style="opacity:0.976" fill="#fefffe" d="M 1571.5,1996.5 C 1614.53,1993.67 1650.7,2008.01 1680,2039.5C 1708.26,2074.81 1716.6,2114.47 1705,2158.5C 1687.55,2209.49 1652.05,2238.66 1598.5,2246C 1545.97,2249.65 1505.47,2229.48 1477,2185.5C 1455.47,2144.01 1455.14,2102.34 1476,2060.5C 1497.73,2024.05 1529.57,2002.72 1571.5,1996.5 Z M 1580.5,2034.5 C 1619.99,2034.99 1648.16,2052.99 1665,2088.5C 1678.24,2127.04 1670.07,2160.21 1640.5,2188C 1608.36,2212.09 1574.7,2214.42 1539.5,2195C 1513.93,2177.55 1500.26,2153.21 1498.5,2122C 1501.75,2080.16 1523.08,2052.16 1562.5,2038C 1568.58,2036.5 1574.58,2035.34 1580.5,2034.5 Z"/></g>
<g><path style="opacity:0.982" fill="#fefffe" d="M 2748.5,1996.5 C 2752.85,1996.33 2757.18,1996.5 2761.5,1997C 2809.78,2052.41 2857.95,2107.91 2906,2163.5C 2906.33,2110.83 2906.67,2058.17 2907,2005.5C 2907.94,2002.23 2910.11,2000.39 2913.5,2000C 2922.17,1999.33 2930.83,1999.33 2939.5,2000C 2942.33,2000.83 2944.17,2002.67 2945,2005.5C 2945.67,2084.17 2945.67,2162.83 2945,2241.5C 2944.53,2242.93 2943.7,2244.1 2942.5,2245C 2937.28,2246.56 2931.95,2246.9 2926.5,2246C 2878.71,2188.54 2830.54,2131.37 2782,2074.5C 2781.67,2129.17 2781.33,2183.83 2781,2238.5C 2779.89,2240.81 2778.06,2242.31 2775.5,2243C 2766.83,2243.67 2758.17,2243.67 2749.5,2243C 2747.38,2241.88 2745.54,2240.38 2744,2238.5C 2743.33,2159.5 2743.33,2080.5 2744,2001.5C 2745.02,1999.31 2746.52,1997.65 2748.5,1996.5 Z"/></g>
<g><path style="opacity:0.976" fill="#fefffe" d="M 182.5,1999.5 C 229.501,1999.33 276.501,1999.5 323.5,2000C 325.081,2000.71 326.581,2001.54 328,2002.5C 329.587,2012.09 329.92,2021.76 329,2031.5C 327.773,2033.73 325.939,2035.23 323.5,2036C 287.502,2036.5 251.502,2036.67 215.5,2036.5C 215.5,2061.17 215.5,2085.83 215.5,2110.5C 245.502,2110.33 275.502,2110.5 305.5,2111C 309.02,2111.5 311.52,2113.34 313,2116.5C 313.667,2124.83 313.667,2133.17 313,2141.5C 312.065,2144.1 310.232,2145.6 307.5,2146C 276.835,2146.5 246.168,2146.67 215.5,2146.5C 215.667,2176.84 215.5,2207.17 215,2237.5C 213.833,2240 212,2241.83 209.5,2243C 199.426,2243.92 189.426,2243.59 179.5,2242C 178.299,2241.1 177.465,2239.93 177,2238.5C 176.333,2160.5 176.333,2082.5 177,2004.5C 178.107,2001.89 179.94,2000.22 182.5,1999.5 Z"/></g>
<g><path style="opacity:0.968" fill="#fefffe" d="M 1168.5,1999.5 C 1219.89,1999.01 1271.23,1999.51 1322.5,2001C 1323.7,2001.9 1324.53,2003.07 1325,2004.5C 1325.67,2013.83 1325.67,2023.17 1325,2032.5C 1324.17,2033.33 1323.33,2034.17 1322.5,2035C 1302.93,2036.48 1283.26,2036.98 1263.5,2036.5C 1263.67,2103.83 1263.5,2171.17 1263,2238.5C 1261.89,2240.81 1260.06,2242.31 1257.5,2243C 1247.76,2243.92 1238.09,2243.59 1228.5,2242C 1225.73,2240.24 1224.23,2237.74 1224,2234.5C 1223.5,2168.5 1223.33,2102.5 1223.5,2036.5C 1204.1,2036.96 1184.77,2036.46 1165.5,2035C 1163.96,2033.42 1162.79,2031.59 1162,2029.5C 1161.33,2022.17 1161.33,2014.83 1162,2007.5C 1162.86,2005.91 1163.53,2004.25 1164,2002.5C 1165.65,2001.6 1167.15,2000.6 1168.5,1999.5 Z"/></g>
<g><path style="opacity:0.977" fill="#fefffe" d="M 1883.5,1999.5 C 1917.5,1999.33 1951.5,1999.5 1985.5,2000C 2028.52,2006.83 2051.85,2032 2055.5,2075.5C 2054.37,2098.77 2045.03,2117.77 2027.5,2132.5C 2020.81,2137.51 2013.81,2142.01 2006.5,2146C 2021.56,2174.63 2036.73,2203.13 2052,2231.5C 2052.83,2235.67 2051.66,2239.17 2048.5,2242C 2037.26,2243.62 2025.93,2243.96 2014.5,2243C 2012.92,2242.29 2011.42,2241.46 2010,2240.5C 1994.96,2210.26 1979.79,2180.09 1964.5,2150C 1948.5,2149.5 1932.5,2149.33 1916.5,2149.5C 1916.67,2179.17 1916.5,2208.84 1916,2238.5C 1914.89,2240.81 1913.06,2242.31 1910.5,2243C 1901.5,2243.67 1892.5,2243.67 1883.5,2243C 1881.06,2242.23 1879.23,2240.73 1878,2238.5C 1877.33,2160.83 1877.33,2083.17 1878,2005.5C 1878.68,2002.32 1880.52,2000.32 1883.5,1999.5 Z M 1917.5,2037.5 C 1939.5,2037.33 1961.5,2037.5 1983.5,2038C 2002.86,2043.36 2013.52,2056.02 2015.5,2076C 2013.03,2099.13 2000.36,2112.47 1977.5,2116C 1957.5,2116.5 1937.5,2116.67 1917.5,2116.5C 1917.5,2090.17 1917.5,2063.83 1917.5,2037.5 Z"/></g>
<g><path style="opacity:0.969" fill="#fefffe" d="M 2198.5,1999.5 C 2209.58,1999.07 2220.58,1999.57 2231.5,2001C 2252.33,2029.83 2273.17,2058.67 2294,2087.5C 2314.22,2058.22 2335.05,2029.39 2356.5,2001C 2367.4,1999.38 2378.4,1999.05 2389.5,2000C 2394.99,2003.14 2396.49,2007.64 2394,2013.5C 2367.33,2050.83 2340.67,2088.17 2314,2125.5C 2313.67,2162.5 2313.33,2199.5 2313,2236.5C 2312.65,2238.85 2311.49,2240.68 2309.5,2242C 2299.91,2243.59 2290.24,2243.92 2280.5,2243C 2278.15,2242.65 2276.32,2241.49 2275,2239.5C 2273.68,2201.56 2273.02,2163.56 2273,2125.5C 2246.67,2088.17 2220.33,2050.83 2194,2013.5C 2191.61,2007.52 2193.11,2002.85 2198.5,1999.5 Z"/></g>
<g><path style="opacity:0.972" fill="#fefffe" d="M 3136.5,1999.5 C 3183.5,1999.33 3230.5,1999.5 3277.5,2000C 3279.33,2000.27 3280.83,2001.11 3282,2002.5C 3283.62,2012.4 3283.95,2022.4 3283,2032.5C 3281.79,2034.05 3280.29,2035.22 3278.5,2036C 3242.17,2036.5 3205.83,2036.67 3169.5,2036.5C 3169.5,2058.17 3169.5,2079.83 3169.5,2101.5C 3200.17,2101.33 3230.84,2101.5 3261.5,2102C 3264,2103.17 3265.83,2105 3267,2107.5C 3267.91,2116.58 3267.58,2125.58 3266,2134.5C 3264.68,2136.49 3262.85,2137.65 3260.5,2138C 3230.17,2138.5 3199.84,2138.67 3169.5,2138.5C 3169.5,2161.17 3169.5,2183.83 3169.5,2206.5C 3205.17,2206.33 3240.83,2206.5 3276.5,2207C 3279.49,2207.41 3281.66,2208.91 3283,2211.5C 3283.67,2220.83 3283.67,2230.17 3283,2239.5C 3281.68,2241.49 3279.85,2242.65 3277.5,2243C 3230.5,2243.67 3183.5,2243.67 3136.5,2243C 3134.06,2242.23 3132.23,2240.73 3131,2238.5C 3130.33,2160.83 3130.33,2083.17 3131,2005.5C 3131.33,2004.5 3131.67,2003.5 3132,2002.5C 3133.65,2001.6 3135.15,2000.6 3136.5,1999.5 Z"/></g>
<g><path style="opacity:0.971" fill="#fefffe" d="M 3440.5,1999.5 C 3452.91,1999.06 3465.24,1999.56 3477.5,2001C 3481.79,2007.08 3485.96,2013.25 3490,2019.5C 3501.42,2040.69 3513.59,2061.36 3526.5,2081.5C 3542.86,2054.81 3559.2,2028.15 3575.5,2001.5C 3576.5,2001 3577.5,2000.5 3578.5,2000C 3589.83,1999.33 3601.17,1999.33 3612.5,2000C 3619.41,2003.08 3620.91,2007.91 3617,2014.5C 3594.52,2048.76 3572.69,2083.42 3551.5,2118.5C 3573.49,2155.14 3595.99,2191.47 3619,2227.5C 3622.02,2231.95 3622.19,2236.45 3619.5,2241C 3617.91,2241.86 3616.25,2242.53 3614.5,2243C 3604.5,2243.67 3594.5,2243.67 3584.5,2243C 3582.75,2242.53 3581.09,2241.86 3579.5,2241C 3562.03,2211.88 3544.2,2183.05 3526,2154.5C 3508.96,2184.19 3491.13,2213.36 3472.5,2242C 3461.24,2243.6 3449.91,2243.93 3438.5,2243C 3434.18,2241.84 3431.85,2239.01 3431.5,2234.5C 3432.39,2231.72 3433.56,2229.05 3435,2226.5C 3457.76,2190.64 3480.26,2154.64 3502.5,2118.5C 3480.83,2083.16 3458.67,2048.16 3436,2013.5C 3433.24,2007.28 3434.74,2002.62 3440.5,1999.5 Z"/></g>
<g><path style="opacity:0.966" fill="#fefffe" d="M 3760.5,1999.5 C 3811.17,1999.33 3861.83,1999.5 3912.5,2000C 3915.06,2000.69 3916.89,2002.19 3918,2004.5C 3918.67,2013.5 3918.67,2022.5 3918,2031.5C 3917.53,2032.93 3916.7,2034.1 3915.5,2035C 3895.9,2036.46 3876.23,2036.96 3856.5,2036.5C 3856.67,2103.83 3856.5,2171.17 3856,2238.5C 3854.62,2241.11 3852.46,2242.61 3849.5,2243C 3839.76,2243.92 3830.09,2243.59 3820.5,2242C 3818.23,2240.44 3817.07,2238.28 3817,2235.5C 3816.5,2169.17 3816.33,2102.83 3816.5,2036.5C 3797.07,2036.98 3777.74,2036.48 3758.5,2035C 3756.95,2033.79 3755.78,2032.29 3755,2030.5C 3754.09,2021.42 3754.42,2012.42 3756,2003.5C 3757.4,2001.93 3758.9,2000.6 3760.5,1999.5 Z"/></g>
</svg>
